<svg width="135.2" height="96.8" viewBox="0 0 135.2 96.8" xmlns="http://www.w3.org/2000/svg"><g id="svgGroup" stroke-linecap="round" fill-rule="evenodd" font-size="9pt" stroke="#ffffff00" stroke-width="0.25mm" fill="#ffffff" style="stroke:#ffffff00;stroke-width:0.25mm;fill:#ffffff"><path d="M 0 53.2 L 0 43.7 A 11.721 11.721 0 0 0 2.576 43.436 Q 4.25 43.058 5.462 42.143 A 6.565 6.565 0 0 0 6.75 40.85 A 10.659 10.659 0 0 0 8.866 35.059 A 13.475 13.475 0 0 0 8.9 34.1 L 8.9 19.4 A 41.912 41.912 0 0 1 9.098 15.225 Q 9.322 12.989 9.8 11.05 A 14.646 14.646 0 0 1 11.203 7.417 A 12.386 12.386 0 0 1 13 4.95 Q 15.165 2.644 18.926 1.401 A 21.36 21.36 0 0 1 19.4 1.25 A 25.024 25.024 0 0 1 22.798 0.488 Q 24.543 0.214 26.572 0.094 A 56.385 56.385 0 0 1 29.9 0 L 30.6 0 L 30.6 9.6 Q 28.38 9.6 26.687 9.835 A 16.771 16.771 0 0 0 25.7 10 A 8.682 8.682 0 0 0 24.233 10.422 Q 23.222 10.819 22.5 11.45 A 5.651 5.651 0 0 0 21.117 13.309 A 7.302 7.302 0 0 0 20.75 14.25 A 10.44 10.44 0 0 0 20.415 15.696 Q 20.2 17.013 20.2 18.7 L 20.2 33 A 37.821 37.821 0 0 1 20.033 36.674 Q 19.691 40.165 18.65 42.55 A 12.43 12.43 0 0 1 14.916 47.334 A 15.894 15.894 0 0 1 13.4 48.4 A 14.253 14.253 0 0 1 16.624 51.094 A 12.082 12.082 0 0 1 18.65 54.3 Q 19.776 56.916 20.084 60.746 A 38.179 38.179 0 0 1 20.2 63.8 L 20.2 78.2 A 21.792 21.792 0 0 0 20.265 79.938 Q 20.333 80.784 20.472 81.501 A 9.34 9.34 0 0 0 20.75 82.6 A 6.624 6.624 0 0 0 21.518 84.223 A 5.571 5.571 0 0 0 22.5 85.35 Q 23.627 86.337 25.461 86.749 A 10.174 10.174 0 0 0 25.7 86.8 A 18.17 18.17 0 0 0 27.327 87.044 Q 28.788 87.2 30.6 87.2 L 30.6 96.8 Q 25.961 96.8 22.521 96.225 A 25.742 25.742 0 0 1 19.7 95.6 Q 15.891 94.512 13.562 92.395 A 11.068 11.068 0 0 1 13.1 91.95 A 12.714 12.714 0 0 1 10.048 86.782 A 15.308 15.308 0 0 1 9.8 85.9 A 28.362 28.362 0 0 1 9.154 82.261 Q 8.9 80.05 8.9 77.5 L 8.9 62.7 A 11.319 11.319 0 0 0 8.181 58.624 A 10.461 10.461 0 0 0 6.75 56.05 A 6.822 6.822 0 0 0 2.99 53.568 Q 1.653 53.2 0 53.2 Z M 135.2 43.7 L 135.2 53.2 A 11.721 11.721 0 0 0 132.624 53.465 Q 130.95 53.842 129.738 54.758 A 6.565 6.565 0 0 0 128.45 56.05 A 10.663 10.663 0 0 0 126.305 62.346 A 13.202 13.202 0 0 0 126.3 62.7 L 126.3 77.5 Q 126.3 82.3 125.4 85.9 Q 124.5 89.5 122.1 91.95 A 12.381 12.381 0 0 1 119.042 94.2 Q 117.665 94.933 115.986 95.455 A 21.877 21.877 0 0 1 115.5 95.6 A 26.68 26.68 0 0 1 112.158 96.308 Q 110.372 96.577 108.279 96.699 A 63.342 63.342 0 0 1 104.6 96.8 L 104.6 87.2 Q 109.196 87.2 111.594 86.039 A 5.768 5.768 0 0 0 112.7 85.35 Q 114.806 83.656 114.984 79.07 A 22.478 22.478 0 0 0 115 78.2 L 115 63.8 A 36.675 36.675 0 0 1 115.179 60.056 Q 115.364 58.261 115.739 56.748 A 15.837 15.837 0 0 1 116.55 54.3 Q 118.1 50.7 121.8 48.4 A 14.505 14.505 0 0 1 118.658 45.81 A 12.027 12.027 0 0 1 116.55 42.55 Q 115.457 40.047 115.135 36.325 A 38.634 38.634 0 0 1 115 33 L 115 18.7 A 21.828 21.828 0 0 0 114.929 16.882 Q 114.802 15.371 114.45 14.25 A 6.841 6.841 0 0 0 113.765 12.719 A 5.475 5.475 0 0 0 112.7 11.45 Q 111.573 10.464 109.739 10.051 A 10.174 10.174 0 0 0 109.5 10 Q 107.5 9.6 104.6 9.6 L 104.6 0 L 105.3 0 A 54.194 54.194 0 0 1 109.428 0.148 Q 111.47 0.304 113.207 0.626 A 23.742 23.742 0 0 1 115.8 1.25 Q 119.498 2.378 121.732 4.481 A 10.769 10.769 0 0 1 122.2 4.95 A 12.88 12.88 0 0 1 124.93 9.484 A 15.999 15.999 0 0 1 125.4 11.05 Q 126.272 14.586 126.299 19.107 A 48.583 48.583 0 0 1 126.3 19.4 L 126.3 34.1 A 11.872 11.872 0 0 0 126.872 37.843 A 10.348 10.348 0 0 0 128.45 40.85 A 6.822 6.822 0 0 0 132.21 43.332 Q 133.547 43.7 135.2 43.7 Z M 61.8 65 L 74.6 65 Q 74.758 66.343 74.791 67.124 A 8.932 8.932 0 0 1 74.8 67.5 L 74.8 69.1 A 43.295 43.295 0 0 1 73.715 78.574 A 51.27 51.27 0 0 1 72.85 81.9 Q 70.9 88.5 67.4 94.4 L 57.9 91.8 A 52.131 52.131 0 0 0 60.382 84.295 A 44.242 44.242 0 0 0 61.15 80.45 Q 61.875 75.715 61.982 71.962 A 44.523 44.523 0 0 0 62 70.7 Q 62 69.5 61.95 67.7 Q 61.9 65.9 61.8 65 Z M 75.182 37.022 A 8.501 8.501 0 0 0 75.6 34.3 A 10.068 10.068 0 0 0 75.59 33.841 A 7.519 7.519 0 0 0 73.25 28.55 Q 70.9 26.3 67.6 26.3 A 10.16 10.16 0 0 0 67.441 26.301 A 7.801 7.801 0 0 0 61.9 28.55 A 7.379 7.379 0 0 0 60.04 31.477 A 8.703 8.703 0 0 0 59.6 34.3 A 9.998 9.998 0 0 0 59.632 35.103 A 7.352 7.352 0 0 0 61.9 40 A 7.713 7.713 0 0 0 64.576 41.688 A 8.654 8.654 0 0 0 67.6 42.2 Q 70.9 42.2 73.25 40 A 7.148 7.148 0 0 0 75.182 37.022 Z" vector-effect="non-scaling-stroke"/></g></svg>